<svg width="632" height="26" viewBox="0 0 632 26" fill="none" xmlns="http://www.w3.org/2000/svg">
<mask id="path-1-inside-1" fill="white">
<path fill-rule="evenodd" clip-rule="evenodd" d="M0 0V26H26C11.6406 26 0 14.3594 0 0ZM606 26H632V0C632 14.3594 620.359 26 606 26Z"/>
</mask>
<path fill-rule="evenodd" clip-rule="evenodd" d="M0 0V26H26C11.6406 26 0 14.3594 0 0ZM606 26H632V0C632 14.3594 620.359 26 606 26Z" fill="white"/>
<path d="M0 26H-2V28H0V26ZM632 26V28H634V26H632ZM2 26V0H-2V26H2ZM26 24H0V28H26V24ZM26 24C12.7452 24 2 13.2548 2 0H-2C-2 15.464 10.536 28 26 28V24ZM632 24H606V28H632V24ZM630 0V26H634V0H630ZM630 0C630 13.2548 619.255 24 606 24V28C621.464 28 634 15.464 634 0H630Z" fill="white" mask="url(#path-1-inside-1)"/>
</svg>
