<svg width="24" height="24" viewBox="0 0 24 24" fill="none" xmlns="http://www.w3.org/2000/svg">
<path d="M18.7319 7.47503C18.6389 7.38052 18.5283 7.3055 18.4065 7.25431C18.2846 7.20311 18.1539 7.17676 18.0219 7.17676C17.8899 7.17676 17.7592 7.20311 17.6373 7.25431C17.5155 7.3055 17.4049 7.38052 17.3119 7.47503L9.86192 14.9975L6.73192 11.8312C6.6354 11.7372 6.52146 11.6632 6.3966 11.6136C6.27175 11.564 6.13842 11.5397 6.00424 11.542C5.87006 11.5444 5.73765 11.5733 5.61458 11.6273C5.4915 11.6812 5.38016 11.7591 5.28692 11.8564C5.19368 11.9537 5.12037 12.0686 5.07117 12.1945C5.02196 12.3204 4.99783 12.4549 5.00015 12.5902C5.00247 12.7255 5.0312 12.859 5.0847 12.9831C5.13819 13.1072 5.2154 13.2195 5.31192 13.3135L9.15192 17.1856C9.24488 17.2802 9.35548 17.3552 9.47734 17.4064C9.5992 17.4576 9.7299 17.4839 9.86192 17.4839C9.99393 17.4839 10.1246 17.4576 10.2465 17.4064C10.3684 17.3552 10.479 17.2802 10.5719 17.1856L18.7319 8.95734C18.8334 8.86291 18.9144 8.74831 18.9698 8.62075C19.0252 8.49319 19.0538 8.35544 19.0538 8.21618C19.0538 8.07693 19.0252 7.93918 18.9698 7.81162C18.9144 7.68406 18.8334 7.56946 18.7319 7.47503Z" fill="#2F80ED"/>
</svg>
