<svg width="36" height="36" viewBox="0 0 36 36" fill="none" xmlns="http://www.w3.org/2000/svg">
<path d="M18 0C14.4399 0 10.9598 1.05568 7.99974 3.03355C5.03966 5.01141 2.73255 7.82263 1.37018 11.1117C0.00779915 14.4008 -0.348661 18.02 0.345873 21.5116C1.04041 25.0033 2.75474 28.2106 5.27209 30.7279C7.78943 33.2453 10.9967 34.9596 14.4884 35.6541C17.98 36.3487 21.5992 35.9922 24.8883 34.6298C28.1774 33.2675 30.9886 30.9603 32.9665 28.0003C34.9443 25.0402 36 21.5601 36 18C36 15.6362 35.5344 13.2956 34.6298 11.1117C33.7252 8.92784 32.3994 6.94353 30.7279 5.27208C29.0565 3.60062 27.0722 2.27475 24.8883 1.37017C22.7044 0.465584 20.3638 0 18 0ZM18 32.4C14.1809 32.4 10.5182 30.8829 7.81767 28.1823C5.11715 25.4818 3.60001 21.8191 3.60001 18C3.59603 14.802 4.66744 11.6956 6.64201 9.18L26.82 29.358C24.3044 31.3326 21.198 32.404 18 32.4ZM29.358 26.82L9.18001 6.642C11.6956 4.66743 14.802 3.59602 18 3.6C21.8191 3.6 25.4818 5.11714 28.1823 7.81766C30.8829 10.5182 32.4 14.1809 32.4 18C32.404 21.198 31.3326 24.3044 29.358 26.82Z" fill="#EB5757"/>
</svg>
