<svg width="32" height="32" viewBox="0 0 32 32" fill="none" xmlns="http://www.w3.org/2000/svg">
<path d="M11 10C10.8022 10 10.6089 10.0587 10.4444 10.1685C10.28 10.2784 10.1518 10.4346 10.0761 10.6173C10.0004 10.8001 9.98065 11.0011 10.0192 11.1951C10.0578 11.3891 10.1531 11.5673 10.2929 11.7071C10.4328 11.847 10.6109 11.9422 10.8049 11.9808C10.9989 12.0194 11.2 11.9996 11.3827 11.9239C11.5654 11.8482 11.7216 11.72 11.8315 11.5556C11.9414 11.3911 12 11.1978 12 11C12 10.7348 11.8947 10.4804 11.7071 10.2929C11.5196 10.1054 11.2652 10 11 10ZM25.71 15.78L16.23 6.32002C16.1368 6.21948 16.0239 6.13919 15.8983 6.08414C15.7727 6.02909 15.6371 6.00046 15.5 6.00002H9.50002C9.36841 5.99926 9.23795 6.02448 9.11611 6.07425C8.99427 6.12401 8.88346 6.19734 8.79002 6.29002L6.29002 8.78002C6.19734 8.87346 6.12401 8.98427 6.07425 9.10611C6.02448 9.22795 5.99926 9.35841 6.00002 9.49002V15.49C6.0037 15.7548 6.10728 16.0084 6.29002 16.2L15.78 25.7C15.9717 25.8828 16.2253 25.9863 16.49 25.99C16.6216 25.9908 16.7521 25.9656 16.8739 25.9158C16.9958 25.866 17.1066 25.7927 17.2 25.7L25.71 17.19C25.8027 17.0966 25.876 16.9858 25.9258 16.8639C25.9756 16.7421 26.0008 16.6116 26 16.48C25.9938 16.2187 25.8904 15.9691 25.71 15.78ZM16.49 23.59L8.00002 15.09V9.90002L9.90002 8.00002H15.08L23.58 16.49L16.49 23.59Z" fill="#219653"/>
</svg>
