<svg width="32" height="32" viewBox="0 0 32 32" fill="none" xmlns="http://www.w3.org/2000/svg">
<path d="M16 12.6667C14.1583 12.6667 12.6667 14.1583 12.6667 16C12.6667 17.8417 14.1583 19.3333 16 19.3333C17.8417 19.3333 19.3333 17.8417 19.3333 16C19.3333 14.1583 17.8417 12.6667 16 12.6667ZM23.45 15.1667C23.0667 11.6917 20.3083 8.93333 16.8333 8.55V6.83333C16.8333 6.3731 16.4602 6 16 6V6C15.5398 6 15.1667 6.3731 15.1667 6.83333V8.55C11.6917 8.93333 8.93333 11.6917 8.55 15.1667H6.83333C6.3731 15.1667 6 15.5398 6 16V16C6 16.4602 6.3731 16.8333 6.83333 16.8333H8.55C8.93333 20.3083 11.6917 23.0667 15.1667 23.45V25.1667C15.1667 25.6269 15.5398 26 16 26V26C16.4602 26 16.8333 25.6269 16.8333 25.1667V23.45C20.3083 23.0667 23.0667 20.3083 23.45 16.8333H25.1667C25.6269 16.8333 26 16.4602 26 16V16C26 15.5398 25.6269 15.1667 25.1667 15.1667H23.45ZM16 21.8333C12.775 21.8333 10.1667 19.225 10.1667 16C10.1667 12.775 12.775 10.1667 16 10.1667C19.225 10.1667 21.8333 12.775 21.8333 16C21.8333 19.225 19.225 21.8333 16 21.8333Z" fill="#828282"/>
</svg>
