<svg width="32" height="32" viewBox="0 0 32 32" fill="none" xmlns="http://www.w3.org/2000/svg">
<path d="M15.29 19.29C15.247 19.3375 15.2069 19.3876 15.17 19.44C15.1322 19.4957 15.1019 19.5563 15.08 19.62C15.0512 19.6767 15.031 19.7374 15.02 19.8C15.0151 19.8666 15.0151 19.9334 15.02 20C15.0166 20.1312 15.044 20.2613 15.1 20.38C15.1449 20.5041 15.2166 20.6168 15.3099 20.7101C15.4032 20.8034 15.5159 20.8751 15.64 20.92C15.7597 20.9729 15.8891 21.0002 16.02 21.0002C16.1509 21.0002 16.2803 20.9729 16.4 20.92C16.5241 20.8751 16.6368 20.8034 16.7301 20.7101C16.8234 20.6168 16.8951 20.5041 16.94 20.38C16.9844 20.2584 17.0048 20.1294 17 20C17.0008 19.8684 16.9755 19.7379 16.9258 19.6161C16.876 19.4943 16.8027 19.3834 16.71 19.29C16.617 19.1963 16.5064 19.1219 16.3846 19.0711C16.2627 19.0203 16.132 18.9942 16 18.9942C15.868 18.9942 15.7373 19.0203 15.6154 19.0711C15.4936 19.1219 15.383 19.1963 15.29 19.29ZM16 6C14.0222 6 12.0888 6.58649 10.4443 7.6853C8.79981 8.78412 7.51809 10.3459 6.76121 12.1732C6.00433 14.0004 5.8063 16.0111 6.19215 17.9509C6.578 19.8907 7.53041 21.6725 8.92894 23.0711C10.3275 24.4696 12.1093 25.422 14.0491 25.8079C15.9889 26.1937 17.9996 25.9957 19.8268 25.2388C21.6541 24.4819 23.2159 23.2002 24.3147 21.5557C25.4135 19.9112 26 17.9778 26 16C26 14.6868 25.7413 13.3864 25.2388 12.1732C24.7363 10.9599 23.9997 9.85752 23.0711 8.92893C22.1425 8.00035 21.0401 7.26375 19.8268 6.7612C18.6136 6.25866 17.3132 6 16 6ZM16 24C14.4178 24 12.871 23.5308 11.5554 22.6518C10.2398 21.7727 9.21447 20.5233 8.60897 19.0615C8.00347 17.5997 7.84504 15.9911 8.15372 14.4393C8.4624 12.8874 9.22433 11.462 10.3432 10.3431C11.462 9.22433 12.8874 8.4624 14.4393 8.15372C15.9911 7.84504 17.5997 8.00346 19.0615 8.60896C20.5233 9.21447 21.7727 10.2398 22.6518 11.5554C23.5308 12.871 24 14.4177 24 16C24 18.1217 23.1572 20.1566 21.6569 21.6569C20.1566 23.1571 18.1217 24 16 24ZM16 11C15.4731 10.9997 14.9553 11.1381 14.4989 11.4014C14.0425 11.6648 13.6635 12.0437 13.4 12.5C13.3277 12.6138 13.2791 12.7411 13.2572 12.8742C13.2353 13.0073 13.2405 13.1434 13.2726 13.2744C13.3047 13.4054 13.363 13.5285 13.4439 13.6364C13.5248 13.7443 13.6267 13.8348 13.7435 13.9022C13.8602 13.9697 13.9895 14.0129 14.1233 14.0292C14.2572 14.0454 14.393 14.0345 14.5225 13.9969C14.6521 13.9593 14.7727 13.8959 14.8771 13.8105C14.9814 13.7251 15.0675 13.6195 15.13 13.5C15.2181 13.3474 15.345 13.2208 15.4978 13.133C15.6505 13.0452 15.8238 12.9993 16 13C16.2652 13 16.5196 13.1054 16.7071 13.2929C16.8946 13.4804 17 13.7348 17 14C17 14.2652 16.8946 14.5196 16.7071 14.7071C16.5196 14.8946 16.2652 15 16 15C15.7348 15 15.4804 15.1054 15.2929 15.2929C15.1054 15.4804 15 15.7348 15 16V17C15 17.2652 15.1054 17.5196 15.2929 17.7071C15.4804 17.8946 15.7348 18 16 18C16.2652 18 16.5196 17.8946 16.7071 17.7071C16.8946 17.5196 17 17.2652 17 17V16.82C17.6614 16.58 18.2174 16.1152 18.5708 15.5069C18.9242 14.8985 19.0525 14.1853 18.9334 13.4919C18.8143 12.7985 18.4552 12.169 17.919 11.7135C17.3828 11.258 16.7035 11.0055 16 11Z" fill="#219653"/>
</svg>
