<svg width="32" height="32" viewBox="0 0 32 32" fill="none" xmlns="http://www.w3.org/2000/svg">
<path d="M6 7L6 25C6 25.2652 6.10536 25.5196 6.29289 25.7071C6.48043 25.8946 6.73478 26 7 26L25 26C25.2652 26 25.5196 25.8946 25.7071 25.7071C25.8946 25.5196 26 25.2652 26 25L26 7C26 6.73478 25.8946 6.48043 25.7071 6.29289C25.5196 6.10536 25.2652 6 25 6L7 6C6.73478 6 6.48043 6.10536 6.29289 6.29289C6.10536 6.48043 6 6.73478 6 7ZM24 20L24 24L8 24L8 20L24 20ZM24 14L24 18L8 18L8 14L24 14ZM24 8L24 12L8 12L8 8L24 8Z" fill="black"/>
</svg>
