<svg width="30" height="36" viewBox="0 0 30 36" fill="none" xmlns="http://www.w3.org/2000/svg">
<path d="M27.2839 6.48299C28.7698 8.63387 29.681 11.1382 29.9288 13.7521C30.145 15.9878 29.8676 18.2442 29.1167 20.3577C28.3659 22.4711 27.1604 24.3887 25.5878 25.9711L16.2705 35.4708C16.1065 35.6385 15.9113 35.7716 15.6963 35.8624C15.4812 35.9532 15.2506 36 15.0176 36C14.7847 36 14.554 35.9532 14.339 35.8624C14.124 35.7716 13.9288 35.6385 13.7648 35.4708L4.41222 25.9711C2.83958 24.3887 1.63411 22.4711 0.883267 20.3577C0.132423 18.2442 -0.144961 15.9878 0.0712368 13.7521C0.29163 11.5017 1.0009 9.32872 2.14811 7.38926C3.29531 5.4498 4.85196 3.792 6.70624 2.53495C8.86462 1.08327 11.357 0.222976 13.9407 0.037843C16.5244 -0.14729 19.1114 0.349047 21.4497 1.47852C23.788 2.608 25.798 4.33212 27.2839 6.48299Z" fill="#EB5757"/>
</svg>
