<svg width="32" height="32" viewBox="0 0 32 32" fill="none" xmlns="http://www.w3.org/2000/svg">
<path d="M20 6H12C11.2044 6 10.4413 6.31607 9.87869 6.87868C9.31608 7.44129 9.00001 8.20435 9.00001 9V25C8.99931 25.1762 9.04518 25.3495 9.13299 25.5023C9.22079 25.655 9.3474 25.7819 9.50001 25.87C9.65203 25.9578 9.82447 26.004 10 26.004C10.1755 26.004 10.348 25.9578 10.5 25.87L16 22.69L21.5 25.87C21.6524 25.9564 21.8248 26.0012 22 26C22.1752 26.0012 22.3476 25.9564 22.5 25.87C22.6526 25.7819 22.7792 25.655 22.867 25.5023C22.9548 25.3495 23.0007 25.1762 23 25V9C23 8.20435 22.6839 7.44129 22.1213 6.87868C21.5587 6.31607 20.7957 6 20 6Z" fill="black"/>
</svg>
