<svg width="32" height="32" viewBox="0 0 32 32" fill="none" xmlns="http://www.w3.org/2000/svg">
<path d="M25.7309 24.3109L22.0209 20.6309C23.461 18.8353 24.1584 16.5562 23.9697 14.2622C23.781 11.9682 22.7206 9.83368 21.0064 8.29754C19.2923 6.76141 17.0547 5.94041 14.7538 6.00337C12.4529 6.06633 10.2636 7.00846 8.63604 8.63604C7.00846 10.2636 6.06633 12.4529 6.00337 14.7538C5.94041 17.0547 6.76141 19.2923 8.29754 21.0064C9.83368 22.7206 11.9682 23.781 14.2622 23.9697C16.5562 24.1584 18.8353 23.461 20.6309 22.0209L24.3109 25.7009C24.4039 25.7946 24.5145 25.869 24.6363 25.9198C24.7582 25.9706 24.8889 25.9967 25.0209 25.9967C25.1529 25.9967 25.2836 25.9706 25.4055 25.9198C25.5273 25.869 25.6379 25.7946 25.7309 25.7009C25.9111 25.5144 26.0119 25.2652 26.0119 25.0059C26.0119 24.7466 25.9111 24.4974 25.7309 24.3109ZM15.0209 22.0209C13.6364 22.0209 12.2831 21.6104 11.1319 20.8412C9.98076 20.072 9.08356 18.9788 8.55374 17.6997C8.02393 16.4206 7.88531 15.0131 8.1554 13.6553C8.4255 12.2974 9.09219 11.0501 10.0712 10.0712C11.0501 9.09219 12.2974 8.4255 13.6553 8.1554C15.0131 7.88531 16.4206 8.02393 17.6997 8.55374C18.9788 9.08356 20.072 9.98076 20.8412 11.1319C21.6104 12.2831 22.0209 13.6364 22.0209 15.0209C22.0209 16.8774 21.2834 18.6579 19.9706 19.9706C18.6579 21.2834 16.8774 22.0209 15.0209 22.0209Z" fill="white"/>
</svg>
