<svg width="32" height="32" viewBox="0 0 32 32" fill="none" xmlns="http://www.w3.org/2000/svg">
<path d="M21.9999 18.0001C21.4091 18.004 20.8265 18.1388 20.2939 18.3947C19.7614 18.6506 19.2921 19.0213 18.9199 19.4801L13.8199 17.1301C14.0597 16.3959 14.0597 15.6044 13.8199 14.8701L18.9199 12.5201C19.5215 13.2461 20.3602 13.7362 21.2881 13.904C22.2159 14.0717 23.1731 13.9063 23.9909 13.437C24.8086 12.9677 25.4343 12.2246 25.7575 11.3389C26.0806 10.4531 26.0805 9.4817 25.7572 8.59602C25.4339 7.71035 24.8081 6.96736 23.9902 6.49818C23.1724 6.02901 22.2151 5.86381 21.2873 6.03174C20.3596 6.19967 19.5209 6.68993 18.9194 7.41601C18.318 8.14208 17.9923 9.05729 17.9999 10.0001C18.0029 10.2383 18.0263 10.4759 18.0699 10.7101L12.7899 13.1401C12.227 12.5897 11.5142 12.2176 10.7407 12.0705C9.96727 11.9235 9.16762 12.0079 8.44196 12.3132C7.71629 12.6186 7.09687 13.1313 6.66131 13.7872C6.22574 14.443 5.99341 15.2128 5.99341 16.0001C5.99341 16.7874 6.22574 17.5572 6.66131 18.2131C7.09687 18.8689 7.71629 19.3816 8.44196 19.687C9.16762 19.9923 9.96727 20.0768 10.7407 19.9297C11.5142 19.7826 12.227 19.4105 12.7899 18.8601L18.0699 21.2901C18.0263 21.5243 18.0029 21.7619 17.9999 22.0001C17.9999 22.7912 18.2345 23.5646 18.674 24.2224C19.1136 24.8802 19.7383 25.3929 20.4692 25.6956C21.2001 25.9984 22.0043 26.0776 22.7803 25.9233C23.5562 25.7689 24.2689 25.388 24.8283 24.8285C25.3877 24.2691 25.7687 23.5564 25.923 22.7805C26.0774 22.0046 25.9982 21.2003 25.6954 20.4694C25.3927 19.7385 24.88 19.1138 24.2222 18.6742C23.5644 18.2347 22.791 18.0001 21.9999 18.0001ZM21.9999 8.00011C22.3955 8.00011 22.7822 8.11741 23.111 8.33718C23.4399 8.55694 23.6963 8.8693 23.8477 9.23475C23.999 9.6002 24.0386 10.0023 23.9615 10.3903C23.8843 10.7783 23.6938 11.1346 23.4141 11.4143C23.1344 11.694 22.778 11.8845 22.3901 11.9617C22.0021 12.0389 21.6 11.9992 21.2345 11.8479C20.8691 11.6965 20.5567 11.4402 20.337 11.1113C20.1172 10.7824 19.9999 10.3957 19.9999 10.0001C19.9999 9.46968 20.2106 8.96097 20.5857 8.5859C20.9608 8.21083 21.4695 8.00011 21.9999 8.00011ZM9.99991 18.0001C9.60434 18.0001 9.21766 17.8828 8.88877 17.6631C8.55987 17.4433 8.30352 17.1309 8.15215 16.7655C8.00077 16.4 7.96116 15.9979 8.03834 15.6099C8.11551 15.222 8.30599 14.8656 8.58569 14.5859C8.8654 14.3062 9.22176 14.1157 9.60973 14.0385C9.99769 13.9614 10.3998 14.001 10.7653 14.1524C11.1307 14.3037 11.4431 14.5601 11.6628 14.889C11.8826 15.2179 11.9999 15.6046 11.9999 16.0001C11.9999 16.5305 11.7892 17.0393 11.4141 17.4143C11.039 17.7894 10.5303 18.0001 9.99991 18.0001ZM21.9999 24.0001C21.6043 24.0001 21.2177 23.8828 20.8888 23.6631C20.5599 23.4433 20.3035 23.1309 20.1521 22.7655C20.0008 22.4 19.9612 21.9979 20.0383 21.6099C20.1155 21.222 20.306 20.8656 20.5857 20.5859C20.8654 20.3062 21.2218 20.1157 21.6097 20.0385C21.9977 19.9614 22.3998 20.001 22.7653 20.1524C23.1307 20.3037 23.4431 20.5601 23.6628 20.889C23.8826 21.2179 23.9999 21.6046 23.9999 22.0001C23.9999 22.5305 23.7892 23.0393 23.4141 23.4143C23.039 23.7894 22.5303 24.0001 21.9999 24.0001Z" fill="black"/>
</svg>
