<svg width="32" height="32" viewBox="0 0 32 32" fill="none" xmlns="http://www.w3.org/2000/svg">
<path d="M18 22.0001C18.2653 22.0001 18.5196 21.8948 18.7071 21.7073C18.8947 21.5197 19 21.2654 19 21.0001V19.0001C19 18.7349 18.8947 18.4806 18.7071 18.293C18.5196 18.1055 18.2653 18.0001 18 18.0001C17.7348 18.0001 17.4805 18.1055 17.2929 18.293C17.1054 18.4806 17 18.7349 17 19.0001V21.0001C17 21.2654 17.1054 21.5197 17.2929 21.7073C17.4805 21.8948 17.7348 22.0001 18 22.0001ZM14 22.0001C14.2653 22.0001 14.5196 21.8948 14.7071 21.7073C14.8947 21.5197 15 21.2654 15 21.0001V19.0001C15 18.7349 14.8947 18.4806 14.7071 18.293C14.5196 18.1055 14.2653 18.0001 14 18.0001C13.7348 18.0001 13.4805 18.1055 13.2929 18.293C13.1054 18.4806 13 18.7349 13 19.0001V21.0001C13 21.2654 13.1054 21.5197 13.2929 21.7073C13.4805 21.8948 13.7348 22.0001 14 22.0001ZM23 10.0001H21.62L19.89 6.55015C19.8372 6.4232 19.7587 6.30852 19.6595 6.21328C19.5603 6.11803 19.4426 6.04427 19.3136 5.99659C19.1846 5.94892 19.0472 5.92836 18.9099 5.9362C18.7726 5.94404 18.6384 5.98011 18.5157 6.04216C18.3929 6.10421 18.2843 6.1909 18.1966 6.29682C18.1089 6.40274 18.044 6.5256 18.006 6.65774C17.9679 6.78988 17.9575 6.92845 17.9754 7.0648C17.9933 7.20114 18.0391 7.33232 18.11 7.45015L19.38 10.0001H12.62L13.89 7.45015C13.9871 7.21706 13.9924 6.95587 13.9049 6.71904C13.8173 6.4822 13.6434 6.28725 13.4181 6.17331C13.1928 6.05938 12.9327 6.03491 12.6901 6.10481C12.4474 6.17471 12.2402 6.3338 12.11 6.55015L10.38 10.0001H9.00004C8.29323 10.0109 7.61291 10.2709 7.07909 10.7343C6.54526 11.1977 6.19221 11.8347 6.08221 12.533C5.9722 13.2312 6.11231 13.9459 6.47782 14.551C6.84333 15.1561 7.41076 15.6126 8.08004 15.8401L8.82004 23.3001C8.89466 24.0427 9.24338 24.7308 9.79811 25.2301C10.3528 25.7293 11.0737 26.0039 11.82 26.0001H20.2C20.9463 26.0039 21.6672 25.7293 22.222 25.2301C22.7767 24.7308 23.1254 24.0427 23.2 23.3001L23.94 15.8401C24.6108 15.6119 25.1791 15.1537 25.5443 14.5466C25.9096 13.9395 26.0482 13.2228 25.9356 12.5233C25.823 11.8238 25.4665 11.1867 24.9292 10.7249C24.3919 10.2631 23.7085 10.0064 23 10.0001ZM21.19 23.1001C21.1652 23.3477 21.0489 23.577 20.864 23.7435C20.6791 23.9099 20.4388 24.0014 20.19 24.0001H11.81C11.5613 24.0014 11.321 23.9099 11.1361 23.7435C10.9512 23.577 10.8349 23.3477 10.81 23.1001L10.1 16.0001H21.9L21.19 23.1001ZM23 14.0001H9.00004C8.73482 14.0001 8.48047 13.8948 8.29293 13.7073C8.10539 13.5197 8.00004 13.2654 8.00004 13.0001C8.00004 12.7349 8.10539 12.4806 8.29293 12.293C8.48047 12.1055 8.73482 12.0001 9.00004 12.0001H23C23.2653 12.0001 23.5196 12.1055 23.7071 12.293C23.8947 12.4806 24 12.7349 24 13.0001C24 13.2654 23.8947 13.5197 23.7071 13.7073C23.5196 13.8948 23.2653 14.0001 23 14.0001Z" fill="#219653"/>
</svg>
