<svg width="32" height="32" viewBox="0 0 32 32" fill="none" xmlns="http://www.w3.org/2000/svg">
<path d="M27.0002 8.3086C27.0003 8.13197 26.9536 7.95846 26.8649 7.80575C26.7761 7.65304 26.6485 7.52657 26.4949 7.43924C26.3414 7.3519 26.1675 7.30681 25.9909 7.30857C25.8142 7.31032 25.6412 7.35886 25.4895 7.44922C24.9041 7.79761 24.274 8.06441 23.6165 8.24222C22.6774 7.43646 21.4798 6.99553 20.2425 7.00003C18.885 7.0016 17.5813 7.53063 16.6067 8.47542C15.632 9.4202 15.0626 10.7068 15.0188 12.0635C12.3428 11.6368 9.91746 10.24 8.20528 8.13965C8.10212 8.01449 7.97037 7.91597 7.82114 7.8524C7.67192 7.78883 7.50959 7.76208 7.34786 7.7744C7.18622 7.78771 7.03026 7.8402 6.89345 7.92731C6.75665 8.01443 6.64313 8.13356 6.5627 8.2744C6.15023 8.99422 5.91333 9.80116 5.87125 10.6297C5.82917 11.4583 5.98309 12.2851 6.32051 13.043L6.31856 13.0449C6.16691 13.1383 6.04175 13.2691 5.95507 13.4247C5.86838 13.5802 5.82306 13.7555 5.82344 13.9336C5.82161 14.0805 5.83042 14.2274 5.84981 14.373C5.95195 15.6313 6.50959 16.8091 7.41817 17.6855C7.35654 17.803 7.31892 17.9315 7.30751 18.0636C7.29611 18.1957 7.31115 18.3288 7.35176 18.4551C7.74788 19.6892 8.59026 20.7311 9.71407 21.3769C8.57231 21.8184 7.33949 21.9724 6.12422 21.8252C5.89929 21.797 5.67145 21.846 5.47807 21.9643C5.28469 22.0826 5.13725 22.2631 5.05994 22.4762C4.98263 22.6893 4.98003 22.9223 5.05258 23.1371C5.12513 23.3519 5.26852 23.5356 5.45922 23.6582C7.54932 25.0044 9.9829 25.7201 12.469 25.7197C15.2883 25.7514 18.039 24.8505 20.2932 23.1572C22.5475 21.4638 24.1789 19.0729 24.9338 16.3564C25.2869 15.173 25.4671 13.9449 25.469 12.71C25.469 12.6445 25.469 12.5772 25.468 12.5098C25.9901 11.9467 26.3946 11.2851 26.6577 10.5637C26.9208 9.84227 27.0372 9.0756 27.0002 8.3086V8.3086ZM23.6936 11.5205C23.5284 11.7159 23.4448 11.9673 23.4602 12.2227C23.4699 12.3877 23.469 12.5537 23.469 12.71C23.4669 13.7535 23.314 14.7913 23.0149 15.791C22.3984 18.1024 21.024 20.1401 19.1119 21.5776C17.1999 23.0152 14.8607 23.7695 12.469 23.7197C11.6099 23.72 10.7537 23.619 9.91821 23.419C10.9836 23.0756 11.9798 22.5463 12.8606 21.8555C13.0228 21.7277 13.1415 21.5529 13.2005 21.3551C13.2594 21.1572 13.2557 20.9459 13.1898 20.7502C13.1239 20.5545 12.999 20.3841 12.8324 20.2622C12.6657 20.1403 12.4654 20.0729 12.259 20.0693C11.4278 20.0564 10.6341 19.7214 10.0451 19.1348C10.1945 19.1065 10.343 19.0713 10.4904 19.0293C10.7065 18.9678 10.8955 18.8354 11.0271 18.6534C11.1587 18.4715 11.2253 18.2505 11.216 18.0261C11.2068 17.8017 11.1223 17.5869 10.9761 17.4164C10.83 17.2458 10.6307 17.1294 10.4104 17.0859C9.9279 16.9907 9.47391 16.7854 9.08368 16.4861C8.69345 16.1868 8.37749 15.8016 8.16036 15.3604C8.34109 15.385 8.52297 15.4003 8.70528 15.4063C8.92187 15.4095 9.13388 15.3438 9.31066 15.2187C9.48744 15.0935 9.61983 14.9153 9.68868 14.71C9.75466 14.5027 9.75127 14.2796 9.67901 14.0745C9.60676 13.8694 9.46958 13.6934 9.28829 13.5732C8.84844 13.2802 8.48814 12.8827 8.23965 12.4162C7.99116 11.9497 7.86225 11.4289 7.86446 10.9004C7.86446 10.834 7.86641 10.7676 7.87032 10.7022C10.1116 12.7924 13.0186 14.0246 16.0793 14.1817C16.2338 14.1877 16.3877 14.1586 16.5293 14.0966C16.6709 14.0345 16.7965 13.941 16.8967 13.8233C16.9959 13.7044 17.0661 13.5641 17.1019 13.4134C17.1376 13.2628 17.1379 13.1059 17.1027 12.9551C17.0455 12.7165 17.0164 12.472 17.0158 12.2266C17.0167 11.3711 17.3569 10.5509 17.9619 9.94604C18.5668 9.34114 19.3869 9.00091 20.2424 9C20.6825 8.99883 21.1181 9.0889 21.5217 9.26455C21.9253 9.4402 22.288 9.6976 22.5871 10.0205C22.7024 10.1446 22.8476 10.2371 23.0088 10.2892C23.17 10.3414 23.3418 10.3514 23.508 10.3184C23.9188 10.2385 24.3237 10.1308 24.7199 9.99614C24.4496 10.5491 24.1043 11.0621 23.6936 11.5205V11.5205Z" fill="black"/>
</svg>
