<svg width="32" height="32" viewBox="0 0 32 32" fill="none" xmlns="http://www.w3.org/2000/svg">
<path d="M19.2744 16.6384C20.1562 15.9446 20.7999 14.9932 21.1158 13.9165C21.4317 12.8398 21.4043 11.6915 21.0371 10.6312C20.67 9.57087 19.9816 8.65135 19.0675 8.00054C18.1535 7.34973 17.0593 7 15.9373 7C14.8152 7 13.7211 7.34973 12.807 8.00054C11.893 8.65135 11.2045 9.57087 10.8374 10.6312C10.4703 11.6915 10.4428 12.8398 10.7587 13.9165C11.0747 14.9932 11.7184 15.9446 12.6002 16.6384C11.0891 17.2438 9.77069 18.2479 8.7854 19.5436C7.80012 20.8394 7.18493 22.3783 7.00543 23.9961C6.99243 24.1143 7.00283 24.2338 7.03603 24.3479C7.06923 24.462 7.12458 24.5684 7.19891 24.6612C7.34904 24.8484 7.56741 24.9683 7.80596 24.9946C8.04452 25.0208 8.28373 24.9512 8.47097 24.8011C8.65821 24.651 8.77815 24.4326 8.80439 24.194C9.0019 22.4357 9.84031 20.8118 11.1594 19.6326C12.4785 18.4533 14.1859 17.8014 15.9553 17.8014C17.7246 17.8014 19.432 18.4533 20.7511 19.6326C22.0702 20.8118 22.9086 22.4357 23.1061 24.194C23.1306 24.4151 23.2361 24.6192 23.4022 24.767C23.5683 24.9149 23.7833 24.9959 24.0056 24.9946H24.1046C24.3404 24.9674 24.5559 24.8482 24.7041 24.6629C24.8524 24.4776 24.9214 24.2411 24.8961 24.0051C24.7158 22.3827 24.0973 20.8399 23.1069 19.5421C22.1166 18.2443 20.7917 17.2406 19.2744 16.6384ZM15.9373 15.9998C15.2257 15.9998 14.5301 15.7887 13.9384 15.3934C13.3467 14.9981 12.8855 14.4361 12.6132 13.7787C12.3409 13.1213 12.2697 12.3978 12.4085 11.6999C12.5473 11.002 12.89 10.3609 13.3932 9.85771C13.8963 9.35453 14.5374 9.01187 15.2354 8.87304C15.9333 8.73421 16.6567 8.80546 17.3141 9.07778C17.9716 9.3501 18.5335 9.81126 18.9288 10.4029C19.3242 10.9946 19.5352 11.6902 19.5352 12.4018C19.5352 13.3561 19.1561 14.2712 18.4814 14.9459C17.8067 15.6207 16.8915 15.9998 15.9373 15.9998Z" fill="black"/>
</svg>
