<svg width="32" height="32" viewBox="0 0 32 32" fill="none" xmlns="http://www.w3.org/2000/svg">
<path d="M16.0395 20.0686C15.8417 20.0686 15.6484 20.1273 15.4839 20.2372C15.3195 20.347 15.1913 20.5032 15.1156 20.6859C15.04 20.8687 15.0201 21.0697 15.0587 21.2637C15.0973 21.4577 15.1926 21.6359 15.3324 21.7757C15.4723 21.9156 15.6504 22.0108 15.8444 22.0494C16.0384 22.088 16.2395 22.0682 16.4222 21.9925C16.6049 21.9168 16.7611 21.7887 16.871 21.6242C16.9809 21.4598 17.0395 21.2664 17.0395 21.0686C17.0395 20.8034 16.9342 20.5491 16.7466 20.3615C16.5591 20.174 16.3047 20.0686 16.0395 20.0686ZM26.7095 21.5386L18.6595 7.53863C18.3993 7.07215 18.0193 6.68359 17.5587 6.4131C17.0981 6.14261 16.5737 6 16.0395 6C15.5054 6 14.9809 6.14261 14.5203 6.4131C14.0597 6.68359 13.6797 7.07215 13.4195 7.53863L5.41952 21.5386C5.15031 21.9926 5.00566 22.5097 5.00016 23.0375C4.99466 23.5652 5.12852 24.0852 5.3882 24.5447C5.64789 25.0042 6.02422 25.3871 6.4792 25.6547C6.93418 25.9222 7.4517 26.065 7.97952 26.0686H24.0995C24.6316 26.0739 25.1554 25.9375 25.6174 25.6735C26.0794 25.4096 26.4629 25.0275 26.7285 24.5665C26.9941 24.1054 27.1324 23.582 27.129 23.05C27.1257 22.5179 26.9809 21.9963 26.7095 21.5386ZM24.9795 23.5386C24.8919 23.6946 24.764 23.8242 24.6092 23.9139C24.4544 24.0036 24.2784 24.0501 24.0995 24.0486H7.97952C7.80063 24.0501 7.62462 24.0036 7.46984 23.9139C7.31505 23.8242 7.18717 23.6946 7.09952 23.5386C7.01175 23.3866 6.96554 23.2142 6.96554 23.0386C6.96554 22.8631 7.01175 22.6906 7.09952 22.5386L15.0995 8.53863C15.1834 8.37483 15.3109 8.23736 15.468 8.14137C15.625 8.04538 15.8055 7.99459 15.9895 7.99459C16.1736 7.99459 16.354 8.04538 16.5111 8.14137C16.6681 8.23736 16.7956 8.37483 16.8795 8.53863L24.9295 22.5386C25.0287 22.6885 25.0857 22.8623 25.0945 23.0418C25.1033 23.2213 25.0636 23.3998 24.9795 23.5586V23.5386ZM16.0395 12.0686C15.7743 12.0686 15.5199 12.174 15.3324 12.3615C15.1449 12.5491 15.0395 12.8034 15.0395 13.0686V17.0686C15.0395 17.3338 15.1449 17.5882 15.3324 17.7757C15.5199 17.9633 15.7743 18.0686 16.0395 18.0686C16.3047 18.0686 16.5591 17.9633 16.7466 17.7757C16.9342 17.5882 17.0395 17.3338 17.0395 17.0686V13.0686C17.0395 12.8034 16.9342 12.5491 16.7466 12.3615C16.5591 12.174 16.3047 12.0686 16.0395 12.0686Z" fill="#EB5757"/>
</svg>
