<svg width="632" height="198" viewBox="0 0 632 198" fill="none" xmlns="http://www.w3.org/2000/svg">
<mask id="path-1-inside-1" fill="white">
<path fill-rule="evenodd" clip-rule="evenodd" d="M0 0V170C0 185.464 12.536 198 28 198H604C619.464 198 632 185.464 632 170V0C632 14.3594 620.359 26 606 26H26C11.6406 26 0 14.3594 0 0Z"/>
</mask>
<path fill-rule="evenodd" clip-rule="evenodd" d="M0 0V170C0 185.464 12.536 198 28 198H604C619.464 198 632 185.464 632 170V0C632 14.3594 620.359 26 606 26H26C11.6406 26 0 14.3594 0 0Z" fill="white"/>
<path d="M2 170V0H-2V170H2ZM28 196C13.6406 196 2 184.359 2 170H-2C-2 186.569 11.4314 200 28 200V196ZM604 196H28V200H604V196ZM630 170C630 184.359 618.359 196 604 196V200C620.569 200 634 186.569 634 170H630ZM630 0V170H634V0H630ZM630 0C630 13.2548 619.255 24 606 24V28C621.464 28 634 15.464 634 0H630ZM606 24H26V28H606V24ZM26 24C12.7452 24 2 13.2548 2 0H-2C-2 15.464 10.536 28 26 28V24Z" fill="white" mask="url(#path-1-inside-1)"/>
</svg>
